<svg xmlns="http://www.w3.org/2000/svg" viewBox="0 0 512 512" width="512" height="512">
  <defs>
    <linearGradient id="bg" x1="0%" y1="0%" x2="100%" y2="100%">
      <stop offset="0%" style="stop-color:#1e40af"/>
      <stop offset="100%" style="stop-color:#3b82f6"/>
    </linearGradient>
  </defs>
  <rect width="512" height="512" rx="102" fill="url(#bg)"/>
  <g transform="translate(256,256)" fill="none" stroke="white" stroke-width="12" stroke-linecap="round" stroke-linejoin="round">
    <!-- Flame icon -->
    <path d="M0,-130 C40,-90 65,-40 65,10 C65,65 40,105 0,130 C-40,105 -65,65 -65,10 C-65,-40 -40,-90 0,-130 Z" fill="white" fill-opacity="0.95" stroke="none"/>
    <path d="M0,-40 C20,-20 32,0 32,25 C32,52 20,72 0,90 C-20,72 -32,52 -32,25 C-32,0 -20,-20 0,-40 Z" fill="url(#bg)" stroke="none"/>
  </g>
</svg>
