<svg xmlns="http://www.w3.org/2000/svg" viewBox="0 0 512 512" width="512" height="512">
  <defs>
    <linearGradient id="bg" x1="0%" y1="0%" x2="100%" y2="100%">
      <stop offset="0%" style="stop-color:#1e40af"/>
      <stop offset="100%" style="stop-color:#3b82f6"/>
    </linearGradient>
  </defs>
  <!-- Maskable: preenche todo o quadrado, sem arredondamento -->
  <rect width="512" height="512" fill="url(#bg)"/>
  <g transform="translate(256,256)" fill="none">
    <path d="M0,-110 C35,-75 55,-35 55,10 C55,55 35,90 0,110 C-35,90 -55,55 -55,10 C-55,-35 -35,-75 0,-110 Z" fill="white" fill-opacity="0.95"/>
    <path d="M0,-35 C18,-18 28,0 28,22 C28,45 18,62 0,78 C-18,62 -28,45 -28,22 C-28,0 -18,-18 0,-35 Z" fill="url(#bg)"/>
  </g>
</svg>
