<svg xmlns="http://www.w3.org/2000/svg" viewBox="0 0 192 192" width="192" height="192">
  <defs>
    <linearGradient id="bg" x1="0%" y1="0%" x2="100%" y2="100%">
      <stop offset="0%" style="stop-color:#1e40af"/>
      <stop offset="100%" style="stop-color:#3b82f6"/>
    </linearGradient>
  </defs>
  <rect width="192" height="192" fill="url(#bg)"/>
  <g transform="translate(96,96)" fill="none" stroke="white" stroke-width="6" stroke-linecap="round" stroke-linejoin="round">
    <!-- Flame icon -->
    <path d="M0,-50 C15,-35 25,-15 25,5 C25,25 15,40 0,50 C-15,40 -25,25 -25,5 C-25,-15 -15,-35 0,-50 Z" fill="white" fill-opacity="0.95" stroke="none"/>
    <path d="M0,-15 C8,-8 12,0 12,10 C12,20 8,28 0,35 C-8,28 -12,20 -12,10 C-12,0 -8,-8 0,-15 Z" fill="url(#bg)" stroke="none"/>
  </g>
</svg>
